<mxfile host="app.diagrams.net" agent="Mozilla/5.0 (X11; Ubuntu; Linux x86_64; rv:133.0) Gecko/20100101 Firefox/133.0" version="26.0.1">
  <diagram name="Page-1" id="bcUVMIEKa_rK9hjM4VMe">
    <mxGraphModel dx="1364" dy="766" grid="1" gridSize="10" guides="1" tooltips="1" connect="1" arrows="1" fold="1" page="1" pageScale="1" pageWidth="850" pageHeight="1100" math="0" shadow="0">
      <root>
        <mxCell id="0" />
        <mxCell id="1" parent="0" />
        <mxCell id="u02WTMG_zB_Rgp9r-icY-11" value="" style="rounded=0;whiteSpace=wrap;html=1;movable=1;resizable=1;rotatable=1;deletable=1;editable=1;locked=0;connectable=1;strokeWidth=2;fontStyle=1" parent="1" vertex="1">
          <mxGeometry x="110" y="140" width="930" height="770" as="geometry" />
        </mxCell>
        <mxCell id="u02WTMG_zB_Rgp9r-icY-40" value="" style="triangle;whiteSpace=wrap;html=1;fontSize=10;strokeWidth=2;fontStyle=1" parent="1" vertex="1">
          <mxGeometry x="110" y="335" width="15" height="20" as="geometry" />
        </mxCell>
        <mxCell id="u02WTMG_zB_Rgp9r-icY-41" value="clock" style="text;html=1;align=center;verticalAlign=middle;whiteSpace=wrap;rounded=0;fontSize=10;strokeWidth=2;fontStyle=1" parent="1" vertex="1">
          <mxGeometry x="125" y="330" width="35" height="15" as="geometry" />
        </mxCell>
        <mxCell id="u02WTMG_zB_Rgp9r-icY-42" style="edgeStyle=orthogonalEdgeStyle;rounded=0;orthogonalLoop=1;jettySize=auto;html=1;endArrow=none;endFill=0;entryX=1;entryY=0.5;entryDx=0;entryDy=0;strokeColor=#FF0000;fontSize=10;strokeWidth=2;fontStyle=1" parent="1" source="u02WTMG_zB_Rgp9r-icY-14" target="u02WTMG_zB_Rgp9r-icY-40" edge="1">
          <mxGeometry relative="1" as="geometry">
            <mxPoint x="270" y="345" as="targetPoint" />
          </mxGeometry>
        </mxCell>
        <mxCell id="u02WTMG_zB_Rgp9r-icY-44" value="" style="group;movable=1;resizable=1;rotatable=1;deletable=1;editable=1;locked=0;connectable=1;fontSize=10;strokeWidth=2;fontStyle=1" parent="1" vertex="1" connectable="0">
          <mxGeometry x="620" y="320" width="210" height="195" as="geometry" />
        </mxCell>
        <mxCell id="u02WTMG_zB_Rgp9r-icY-13" value="" style="rounded=0;whiteSpace=wrap;html=1;fontSize=10;strokeWidth=2;fontStyle=1" parent="u02WTMG_zB_Rgp9r-icY-44" vertex="1">
          <mxGeometry width="210" height="190" as="geometry" />
        </mxCell>
        <mxCell id="u02WTMG_zB_Rgp9r-icY-14" value="" style="triangle;whiteSpace=wrap;html=1;fontSize=10;strokeWidth=2;fontStyle=1" parent="u02WTMG_zB_Rgp9r-icY-44" vertex="1">
          <mxGeometry y="15" width="15" height="20" as="geometry" />
        </mxCell>
        <mxCell id="u02WTMG_zB_Rgp9r-icY-15" value="clock" style="text;html=1;align=center;verticalAlign=middle;whiteSpace=wrap;rounded=0;fontSize=10;strokeWidth=2;fontStyle=1" parent="u02WTMG_zB_Rgp9r-icY-44" vertex="1">
          <mxGeometry x="10" y="10" width="40" height="30" as="geometry" />
        </mxCell>
        <mxCell id="u02WTMG_zB_Rgp9r-icY-23" value="aux_read_addr" style="text;html=1;align=center;verticalAlign=middle;whiteSpace=wrap;rounded=0;fontSize=10;strokeWidth=2;fontStyle=1" parent="u02WTMG_zB_Rgp9r-icY-44" vertex="1">
          <mxGeometry y="85" width="80" height="30" as="geometry" />
        </mxCell>
        <mxCell id="u02WTMG_zB_Rgp9r-icY-24" value="aux_read_data" style="text;html=1;align=center;verticalAlign=middle;whiteSpace=wrap;rounded=0;fontSize=10;strokeWidth=2;fontStyle=1" parent="u02WTMG_zB_Rgp9r-icY-44" vertex="1">
          <mxGeometry y="115" width="80" height="30" as="geometry" />
        </mxCell>
        <mxCell id="u02WTMG_zB_Rgp9r-icY-25" value="write_addr" style="text;html=1;align=center;verticalAlign=middle;whiteSpace=wrap;rounded=0;fontSize=10;strokeWidth=2;fontStyle=1" parent="u02WTMG_zB_Rgp9r-icY-44" vertex="1">
          <mxGeometry x="150" y="15" width="60" height="30" as="geometry" />
        </mxCell>
        <mxCell id="u02WTMG_zB_Rgp9r-icY-68" style="edgeStyle=orthogonalEdgeStyle;rounded=0;orthogonalLoop=1;jettySize=auto;html=1;endArrow=none;endFill=0;fontSize=10;strokeWidth=2;fontStyle=1" parent="u02WTMG_zB_Rgp9r-icY-44" source="u02WTMG_zB_Rgp9r-icY-26" edge="1">
          <mxGeometry relative="1" as="geometry">
            <mxPoint x="460" y="60" as="targetPoint" />
          </mxGeometry>
        </mxCell>
        <mxCell id="u02WTMG_zB_Rgp9r-icY-26" value="read_addr" style="text;html=1;align=center;verticalAlign=middle;whiteSpace=wrap;rounded=0;fontSize=10;strokeWidth=2;fontStyle=1" parent="u02WTMG_zB_Rgp9r-icY-44" vertex="1">
          <mxGeometry x="150" y="45" width="60" height="30" as="geometry" />
        </mxCell>
        <mxCell id="u02WTMG_zB_Rgp9r-icY-67" style="edgeStyle=orthogonalEdgeStyle;rounded=0;orthogonalLoop=1;jettySize=auto;html=1;endArrow=none;endFill=0;fontSize=10;strokeWidth=2;fontStyle=1" parent="u02WTMG_zB_Rgp9r-icY-44" source="u02WTMG_zB_Rgp9r-icY-27" edge="1">
          <mxGeometry relative="1" as="geometry">
            <mxPoint x="460" y="90" as="targetPoint" />
          </mxGeometry>
        </mxCell>
        <mxCell id="u02WTMG_zB_Rgp9r-icY-27" value="read_data" style="text;html=1;align=center;verticalAlign=middle;whiteSpace=wrap;rounded=0;fontSize=10;strokeWidth=2;fontStyle=1" parent="u02WTMG_zB_Rgp9r-icY-44" vertex="1">
          <mxGeometry x="150" y="75" width="60" height="30" as="geometry" />
        </mxCell>
        <mxCell id="u02WTMG_zB_Rgp9r-icY-28" value="write_enable" style="text;html=1;align=center;verticalAlign=middle;whiteSpace=wrap;rounded=0;fontSize=10;strokeWidth=2;fontStyle=1" parent="u02WTMG_zB_Rgp9r-icY-44" vertex="1">
          <mxGeometry x="140" y="105" width="70" height="30" as="geometry" />
        </mxCell>
        <mxCell id="u02WTMG_zB_Rgp9r-icY-29" value="write_data" style="text;html=1;align=center;verticalAlign=middle;whiteSpace=wrap;rounded=0;fontSize=10;strokeWidth=2;fontStyle=1" parent="u02WTMG_zB_Rgp9r-icY-44" vertex="1">
          <mxGeometry x="150" y="135" width="60" height="30" as="geometry" />
        </mxCell>
        <mxCell id="u02WTMG_zB_Rgp9r-icY-38" value="triple_port_ram" style="text;html=1;align=center;verticalAlign=middle;whiteSpace=wrap;rounded=0;fontSize=10;fontColor=#007FFF;strokeWidth=2;fontStyle=1" parent="u02WTMG_zB_Rgp9r-icY-44" vertex="1">
          <mxGeometry x="130" y="165" width="77.5" height="30" as="geometry" />
        </mxCell>
        <mxCell id="u02WTMG_zB_Rgp9r-icY-63" style="edgeStyle=orthogonalEdgeStyle;rounded=0;orthogonalLoop=1;jettySize=auto;html=1;entryX=1;entryY=0.5;entryDx=0;entryDy=0;endArrow=none;endFill=0;strokeColor=#FF0000;fontSize=10;strokeWidth=2;fontStyle=1" parent="1" source="u02WTMG_zB_Rgp9r-icY-59" target="u02WTMG_zB_Rgp9r-icY-40" edge="1">
          <mxGeometry relative="1" as="geometry">
            <Array as="points">
              <mxPoint x="200" y="815" />
              <mxPoint x="200" y="345" />
            </Array>
          </mxGeometry>
        </mxCell>
        <mxCell id="u02WTMG_zB_Rgp9r-icY-66" style="edgeStyle=orthogonalEdgeStyle;rounded=0;orthogonalLoop=1;jettySize=auto;html=1;entryX=1;entryY=0.5;entryDx=0;entryDy=0;endArrow=none;endFill=0;strokeColor=#FF0000;exitX=0;exitY=0.5;exitDx=0;exitDy=0;fontSize=10;strokeWidth=2;fontStyle=1" parent="1" source="u02WTMG_zB_Rgp9r-icY-4" target="u02WTMG_zB_Rgp9r-icY-40" edge="1">
          <mxGeometry relative="1" as="geometry">
            <Array as="points">
              <mxPoint x="200" y="265" />
              <mxPoint x="200" y="345" />
            </Array>
          </mxGeometry>
        </mxCell>
        <mxCell id="u02WTMG_zB_Rgp9r-icY-69" value="read_addr" style="text;html=1;align=center;verticalAlign=middle;whiteSpace=wrap;rounded=0;fontSize=10;strokeWidth=2;fontStyle=1" parent="1" vertex="1">
          <mxGeometry x="970" y="355" width="60" height="30" as="geometry" />
        </mxCell>
        <mxCell id="u02WTMG_zB_Rgp9r-icY-84" value="read_data" style="text;html=1;align=center;verticalAlign=middle;whiteSpace=wrap;rounded=0;fontSize=10;strokeWidth=2;fontStyle=1" parent="1" vertex="1">
          <mxGeometry x="970" y="385" width="60" height="30" as="geometry" />
        </mxCell>
        <mxCell id="u02WTMG_zB_Rgp9r-icY-114" value="&#39;1&#39;" style="text;html=1;align=center;verticalAlign=middle;whiteSpace=wrap;rounded=0;fontSize=10;strokeWidth=2;fontStyle=1" parent="1" vertex="1">
          <mxGeometry x="860" y="427" width="20" height="26" as="geometry" />
        </mxCell>
        <mxCell id="u02WTMG_zB_Rgp9r-icY-116" style="edgeStyle=orthogonalEdgeStyle;rounded=0;orthogonalLoop=1;jettySize=auto;html=1;entryX=0;entryY=0.5;entryDx=0;entryDy=0;endArrow=none;endFill=0;fontSize=10;strokeWidth=2;fontStyle=1" parent="1" source="u02WTMG_zB_Rgp9r-icY-28" target="u02WTMG_zB_Rgp9r-icY-114" edge="1">
          <mxGeometry relative="1" as="geometry" />
        </mxCell>
        <mxCell id="u02WTMG_zB_Rgp9r-icY-117" style="edgeStyle=orthogonalEdgeStyle;rounded=0;orthogonalLoop=1;jettySize=auto;html=1;entryX=1;entryY=0.5;entryDx=0;entryDy=0;endArrow=none;endFill=0;fontSize=10;strokeWidth=2;fontStyle=1" parent="1" source="u02WTMG_zB_Rgp9r-icY-23" target="u02WTMG_zB_Rgp9r-icY-2" edge="1">
          <mxGeometry relative="1" as="geometry" />
        </mxCell>
        <mxCell id="u02WTMG_zB_Rgp9r-icY-119" value="&lt;div&gt;write_inc&lt;/div&gt;" style="text;html=1;align=center;verticalAlign=middle;whiteSpace=wrap;rounded=0;fontSize=10;strokeWidth=2;fontStyle=1" parent="1" vertex="1">
          <mxGeometry x="110" y="750" width="50" height="30" as="geometry" />
        </mxCell>
        <mxCell id="u02WTMG_zB_Rgp9r-icY-131" value="&lt;font color=&quot;#e014ff&quot;&gt;s_write_inc_stable&lt;/font&gt;" style="text;html=1;align=center;verticalAlign=middle;whiteSpace=wrap;rounded=0;fontSize=10;strokeWidth=2;fontStyle=1" parent="1" vertex="1">
          <mxGeometry x="310" y="750" width="80" height="30" as="geometry" />
        </mxCell>
        <mxCell id="u02WTMG_zB_Rgp9r-icY-143" style="edgeStyle=orthogonalEdgeStyle;rounded=0;orthogonalLoop=1;jettySize=auto;html=1;entryX=1;entryY=0.5;entryDx=0;entryDy=0;endArrow=none;endFill=0;fontSize=10;exitX=0;exitY=0.5;exitDx=0;exitDy=0;strokeWidth=2;fontStyle=1" parent="1" source="Z-Fa0jqv32ZpYlEeo3vv-62" target="u02WTMG_zB_Rgp9r-icY-58" edge="1">
          <mxGeometry relative="1" as="geometry">
            <mxPoint x="425" y="775" as="sourcePoint" />
            <Array as="points">
              <mxPoint x="400" y="665" />
              <mxPoint x="400" y="775" />
            </Array>
          </mxGeometry>
        </mxCell>
        <mxCell id="u02WTMG_zB_Rgp9r-icY-157" value="(open)" style="text;html=1;align=center;verticalAlign=middle;whiteSpace=wrap;rounded=0;fontSize=10;strokeWidth=2;fontStyle=1" parent="1" vertex="1">
          <mxGeometry x="800" y="730" width="30" height="30" as="geometry" />
        </mxCell>
        <mxCell id="u02WTMG_zB_Rgp9r-icY-158" style="edgeStyle=orthogonalEdgeStyle;rounded=0;orthogonalLoop=1;jettySize=auto;html=1;entryX=0;entryY=0.5;entryDx=0;entryDy=0;endArrow=none;endFill=0;fontSize=10;strokeWidth=2;fontStyle=1" parent="1" source="u02WTMG_zB_Rgp9r-icY-48" target="u02WTMG_zB_Rgp9r-icY-157" edge="1">
          <mxGeometry relative="1" as="geometry" />
        </mxCell>
        <mxCell id="EOWlDWaqW3UNMmOw9FuK-21" style="edgeStyle=orthogonalEdgeStyle;rounded=0;orthogonalLoop=1;jettySize=auto;html=1;endArrow=none;endFill=0;entryX=1;entryY=0.5;entryDx=0;entryDy=0;fontSize=10;strokeWidth=2;fontStyle=1" parent="1" source="u02WTMG_zB_Rgp9r-icY-25" target="u02WTMG_zB_Rgp9r-icY-2" edge="1">
          <mxGeometry relative="1" as="geometry">
            <mxPoint x="520" y="230" as="targetPoint" />
            <Array as="points">
              <mxPoint x="890" y="350" />
              <mxPoint x="890" y="225" />
            </Array>
          </mxGeometry>
        </mxCell>
        <mxCell id="EOWlDWaqW3UNMmOw9FuK-23" value="write_addr" style="text;html=1;align=center;verticalAlign=middle;whiteSpace=wrap;rounded=0;fontSize=10;strokeWidth=2;fontStyle=1" parent="1" vertex="1">
          <mxGeometry x="110" y="210" width="60" height="15" as="geometry" />
        </mxCell>
        <mxCell id="EOWlDWaqW3UNMmOw9FuK-24" value="s_write_addr_stable" style="text;html=1;align=center;verticalAlign=middle;whiteSpace=wrap;rounded=0;fontSize=10;fontColor=#E014FF;strokeWidth=2;fontStyle=1" parent="1" vertex="1">
          <mxGeometry x="530" y="202.5" width="120" height="30" as="geometry" />
        </mxCell>
        <mxCell id="EOWlDWaqW3UNMmOw9FuK-42" style="edgeStyle=orthogonalEdgeStyle;rounded=0;orthogonalLoop=1;jettySize=auto;html=1;entryX=1;entryY=0.5;entryDx=0;entryDy=0;endArrow=none;endFill=0;fontSize=10;strokeWidth=2;fontStyle=1" parent="1" source="u02WTMG_zB_Rgp9r-icY-55" target="u02WTMG_zB_Rgp9r-icY-29" edge="1">
          <mxGeometry relative="1" as="geometry">
            <Array as="points">
              <mxPoint x="860" y="785" />
              <mxPoint x="860" y="470" />
            </Array>
          </mxGeometry>
        </mxCell>
        <mxCell id="EOWlDWaqW3UNMmOw9FuK-53" value="&lt;font color=&quot;#e014ff&quot;&gt;s_value_to_write&lt;/font&gt;" style="text;html=1;align=center;verticalAlign=middle;whiteSpace=wrap;rounded=0;fontSize=10;strokeWidth=2;fontStyle=1" parent="1" vertex="1">
          <mxGeometry x="750" y="760" width="80" height="30" as="geometry" />
        </mxCell>
        <mxCell id="EOWlDWaqW3UNMmOw9FuK-58" value="&lt;font color=&quot;#e014ff&quot;&gt;s_aux_read_data&lt;/font&gt;" style="text;html=1;align=center;verticalAlign=middle;whiteSpace=wrap;rounded=0;fontSize=10;rotation=90;strokeWidth=2;fontStyle=1" parent="1" vertex="1">
          <mxGeometry x="530" y="590" width="80" height="30" as="geometry" />
        </mxCell>
        <mxCell id="EOWlDWaqW3UNMmOw9FuK-60" value="&#39;0&#39;" style="text;html=1;align=center;verticalAlign=middle;whiteSpace=wrap;rounded=0;fontSize=10;strokeWidth=2;fontStyle=1" parent="1" vertex="1">
          <mxGeometry x="620" y="790" width="20" height="30" as="geometry" />
        </mxCell>
        <mxCell id="EOWlDWaqW3UNMmOw9FuK-61" style="edgeStyle=orthogonalEdgeStyle;rounded=0;orthogonalLoop=1;jettySize=auto;html=1;entryX=1;entryY=0.5;entryDx=0;entryDy=0;endArrow=none;endFill=0;fontSize=10;strokeWidth=2;fontStyle=1" parent="1" source="u02WTMG_zB_Rgp9r-icY-54" target="EOWlDWaqW3UNMmOw9FuK-60" edge="1">
          <mxGeometry relative="1" as="geometry" />
        </mxCell>
        <mxCell id="EOWlDWaqW3UNMmOw9FuK-63" style="edgeStyle=orthogonalEdgeStyle;rounded=0;orthogonalLoop=1;jettySize=auto;html=1;entryX=0;entryY=0.5;entryDx=0;entryDy=0;endArrow=none;endFill=0;fontSize=10;exitX=0;exitY=0.5;exitDx=0;exitDy=0;strokeWidth=2;fontStyle=1" parent="1" source="u02WTMG_zB_Rgp9r-icY-50" target="u02WTMG_zB_Rgp9r-icY-24" edge="1">
          <mxGeometry relative="1" as="geometry">
            <Array as="points">
              <mxPoint x="560" y="745" />
              <mxPoint x="560" y="450" />
            </Array>
            <mxPoint x="690" y="865" as="sourcePoint" />
          </mxGeometry>
        </mxCell>
        <mxCell id="23" style="edgeStyle=orthogonalEdgeStyle;rounded=0;orthogonalLoop=1;jettySize=auto;html=1;endArrow=none;endFill=0;exitX=0;exitY=0.5;exitDx=0;exitDy=0;strokeWidth=2;fontStyle=1" parent="1" source="20" edge="1">
          <mxGeometry relative="1" as="geometry">
            <mxPoint x="62.5" y="625" as="targetPoint" />
            <mxPoint x="222.5" y="625" as="sourcePoint" />
          </mxGeometry>
        </mxCell>
        <mxCell id="24" value="&lt;div&gt;write_shift&lt;/div&gt;" style="text;html=1;align=center;verticalAlign=middle;whiteSpace=wrap;rounded=0;fontSize=10;strokeWidth=2;fontStyle=1" parent="1" vertex="1">
          <mxGeometry x="112.5" y="600" width="60" height="30" as="geometry" />
        </mxCell>
        <mxCell id="Z-Fa0jqv32ZpYlEeo3vv-49" style="edgeStyle=none;rounded=0;html=1;exitX=1;exitY=0.5;exitDx=0;exitDy=0;entryX=0;entryY=0.25;entryDx=0;entryDy=0;endArrow=none;endFill=0;" parent="1" edge="1">
          <mxGeometry relative="1" as="geometry" />
        </mxCell>
        <mxCell id="Z-Fa0jqv32ZpYlEeo3vv-63" style="edgeStyle=none;rounded=0;html=1;exitX=1;exitY=0.5;exitDx=0;exitDy=0;entryX=0;entryY=0.5;entryDx=0;entryDy=0;endArrow=none;endFill=0;fontSize=10;strokeWidth=2;fontStyle=1" parent="1" source="18" target="Z-Fa0jqv32ZpYlEeo3vv-59" edge="1">
          <mxGeometry relative="1" as="geometry" />
        </mxCell>
        <mxCell id="Z-Fa0jqv32ZpYlEeo3vv-70" value="&lt;font color=&quot;#e014ff&quot;&gt;s_shifted_inc&lt;br&gt;&lt;/font&gt;" style="text;html=1;align=center;verticalAlign=middle;whiteSpace=wrap;rounded=0;fontSize=10;strokeWidth=2;fontStyle=1" parent="1" vertex="1">
          <mxGeometry x="555" y="750" width="70" height="30" as="geometry" />
        </mxCell>
        <mxCell id="K89G8W4n-CJZzsIixhdd-24" value="accumulator" style="text;html=1;align=center;verticalAlign=middle;whiteSpace=wrap;rounded=0;fontSize=10;fontColor=#007FFF;strokeWidth=2;fontStyle=1" parent="1" vertex="1">
          <mxGeometry x="960.75" y="890" width="78.5" height="30" as="geometry" />
        </mxCell>
        <mxCell id="u02WTMG_zB_Rgp9r-icY-1" value="" style="rounded=0;whiteSpace=wrap;html=1;fontSize=10;strokeWidth=2;fontStyle=1" parent="1" vertex="1">
          <mxGeometry x="220" y="200" width="80" height="90" as="geometry" />
        </mxCell>
        <mxCell id="u02WTMG_zB_Rgp9r-icY-2" value="Q" style="text;html=1;align=center;verticalAlign=middle;whiteSpace=wrap;rounded=0;fontSize=10;strokeWidth=2;fontStyle=1" parent="1" vertex="1">
          <mxGeometry x="270" y="210" width="30" height="30" as="geometry" />
        </mxCell>
        <mxCell id="u02WTMG_zB_Rgp9r-icY-4" value="" style="triangle;whiteSpace=wrap;html=1;fontSize=10;strokeWidth=2;fontStyle=1" parent="1" vertex="1">
          <mxGeometry x="220" y="255" width="15" height="20" as="geometry" />
        </mxCell>
        <mxCell id="EOWlDWaqW3UNMmOw9FuK-22" style="edgeStyle=orthogonalEdgeStyle;rounded=0;orthogonalLoop=1;jettySize=auto;html=1;endArrow=none;endFill=0;strokeWidth=2;fontStyle=1" parent="1" source="u02WTMG_zB_Rgp9r-icY-5" edge="1">
          <mxGeometry relative="1" as="geometry">
            <mxPoint x="60" y="225" as="targetPoint" />
          </mxGeometry>
        </mxCell>
        <mxCell id="u02WTMG_zB_Rgp9r-icY-5" value="D" style="text;html=1;align=center;verticalAlign=middle;whiteSpace=wrap;rounded=0;fontSize=10;strokeWidth=2;fontStyle=1" parent="1" vertex="1">
          <mxGeometry x="220" y="210" width="20" height="30" as="geometry" />
        </mxCell>
        <mxCell id="u02WTMG_zB_Rgp9r-icY-6" value="clock" style="text;html=1;align=center;verticalAlign=middle;whiteSpace=wrap;rounded=0;fontSize=10;strokeWidth=2;fontStyle=1" parent="1" vertex="1">
          <mxGeometry x="230" y="250" width="40" height="30" as="geometry" />
        </mxCell>
        <mxCell id="u02WTMG_zB_Rgp9r-icY-9" value="my_register" style="text;html=1;align=center;verticalAlign=middle;whiteSpace=wrap;rounded=0;fontSize=10;fontColor=#007FFF;strokeWidth=2;fontStyle=1" parent="1" vertex="1">
          <mxGeometry x="240" y="268" width="60" height="30" as="geometry" />
        </mxCell>
        <mxCell id="17" value="" style="rounded=0;whiteSpace=wrap;html=1;fontSize=10;strokeWidth=2;fontStyle=1" parent="1" vertex="1">
          <mxGeometry x="230" y="600" width="90" height="90" as="geometry" />
        </mxCell>
        <mxCell id="18" value="Q" style="text;html=1;align=center;verticalAlign=middle;whiteSpace=wrap;rounded=0;fontSize=10;strokeWidth=2;fontStyle=1" parent="1" vertex="1">
          <mxGeometry x="300" y="610" width="20" height="30" as="geometry" />
        </mxCell>
        <mxCell id="K89G8W4n-CJZzsIixhdd-28" style="edgeStyle=orthogonalEdgeStyle;rounded=0;orthogonalLoop=1;jettySize=auto;html=1;entryX=1;entryY=0.5;entryDx=0;entryDy=0;endArrow=none;endFill=0;fillColor=#f8cecc;strokeColor=#b85450;fontSize=10;strokeWidth=2;fontStyle=1" parent="1" source="19" target="u02WTMG_zB_Rgp9r-icY-40" edge="1">
          <mxGeometry relative="1" as="geometry">
            <Array as="points">
              <mxPoint x="200" y="665" />
              <mxPoint x="200" y="345" />
            </Array>
          </mxGeometry>
        </mxCell>
        <mxCell id="19" value="" style="triangle;whiteSpace=wrap;html=1;fontSize=10;strokeWidth=2;fontStyle=1" parent="1" vertex="1">
          <mxGeometry x="230" y="655" width="15" height="20" as="geometry" />
        </mxCell>
        <mxCell id="20" value="D" style="text;html=1;align=center;verticalAlign=middle;whiteSpace=wrap;rounded=0;fontSize=10;strokeWidth=2;fontStyle=1" parent="1" vertex="1">
          <mxGeometry x="230" y="610" width="20" height="30" as="geometry" />
        </mxCell>
        <mxCell id="21" value="clock" style="text;html=1;align=center;verticalAlign=middle;whiteSpace=wrap;rounded=0;fontSize=10;movable=1;resizable=1;rotatable=1;deletable=1;editable=1;locked=0;connectable=1;strokeWidth=2;fontStyle=1" parent="1" vertex="1">
          <mxGeometry x="240" y="650" width="40" height="30" as="geometry" />
        </mxCell>
        <mxCell id="22" value="my_shift_register" style="text;html=1;align=center;verticalAlign=middle;whiteSpace=wrap;rounded=0;fontSize=10;fontColor=#007FFF;strokeWidth=2;fontStyle=1" parent="1" vertex="1">
          <mxGeometry x="230" y="668" width="90" height="30" as="geometry" />
        </mxCell>
        <mxCell id="u02WTMG_zB_Rgp9r-icY-57" value="" style="rounded=0;whiteSpace=wrap;html=1;movable=1;resizable=1;rotatable=1;deletable=1;editable=1;locked=0;connectable=1;fontSize=10;strokeWidth=2;fontStyle=1" parent="1" vertex="1">
          <mxGeometry x="220" y="750" width="80" height="90" as="geometry" />
        </mxCell>
        <mxCell id="u02WTMG_zB_Rgp9r-icY-58" value="Q" style="text;html=1;align=center;verticalAlign=middle;whiteSpace=wrap;rounded=0;fontSize=10;movable=1;resizable=1;rotatable=1;deletable=1;editable=1;locked=0;connectable=1;strokeWidth=2;fontStyle=1" parent="1" vertex="1">
          <mxGeometry x="270" y="760" width="30" height="30" as="geometry" />
        </mxCell>
        <mxCell id="u02WTMG_zB_Rgp9r-icY-59" value="" style="triangle;whiteSpace=wrap;html=1;fontSize=10;strokeWidth=2;fontStyle=1" parent="1" vertex="1">
          <mxGeometry x="220" y="805" width="15" height="20" as="geometry" />
        </mxCell>
        <mxCell id="u02WTMG_zB_Rgp9r-icY-118" style="edgeStyle=orthogonalEdgeStyle;rounded=0;orthogonalLoop=1;jettySize=auto;html=1;endArrow=none;endFill=0;strokeWidth=2;fontStyle=1" parent="1" source="u02WTMG_zB_Rgp9r-icY-60" edge="1">
          <mxGeometry relative="1" as="geometry">
            <mxPoint x="60" y="775" as="targetPoint" />
          </mxGeometry>
        </mxCell>
        <mxCell id="u02WTMG_zB_Rgp9r-icY-60" value="D" style="text;html=1;align=center;verticalAlign=middle;whiteSpace=wrap;rounded=0;fontSize=10;movable=1;resizable=1;rotatable=1;deletable=1;editable=1;locked=0;connectable=1;strokeWidth=2;fontStyle=1" parent="1" vertex="1">
          <mxGeometry x="220" y="760" width="20" height="30" as="geometry" />
        </mxCell>
        <mxCell id="u02WTMG_zB_Rgp9r-icY-61" value="clock" style="text;html=1;align=center;verticalAlign=middle;whiteSpace=wrap;rounded=0;fontSize=10;movable=1;resizable=1;rotatable=1;deletable=1;editable=1;locked=0;connectable=1;strokeWidth=2;fontStyle=1" parent="1" vertex="1">
          <mxGeometry x="230" y="800" width="40" height="30" as="geometry" />
        </mxCell>
        <mxCell id="u02WTMG_zB_Rgp9r-icY-62" value="my_register" style="text;html=1;align=center;verticalAlign=middle;whiteSpace=wrap;rounded=0;fontSize=10;fontColor=#007FFF;movable=1;resizable=1;rotatable=1;deletable=1;editable=1;locked=0;connectable=1;strokeWidth=2;fontStyle=1" parent="1" vertex="1">
          <mxGeometry x="240" y="818" width="60" height="30" as="geometry" />
        </mxCell>
        <mxCell id="u02WTMG_zB_Rgp9r-icY-47" value="" style="rounded=0;whiteSpace=wrap;html=1;fontSize=10;strokeWidth=2;fontStyle=1" parent="1" vertex="1">
          <mxGeometry x="660" y="730" width="80" height="100" as="geometry" />
        </mxCell>
        <mxCell id="u02WTMG_zB_Rgp9r-icY-48" value="c_out" style="text;html=1;align=center;verticalAlign=middle;whiteSpace=wrap;rounded=0;fontSize=10;strokeWidth=2;fontStyle=1" parent="1" vertex="1">
          <mxGeometry x="700" y="730" width="40" height="30" as="geometry" />
        </mxCell>
        <mxCell id="u02WTMG_zB_Rgp9r-icY-50" value="a" style="text;html=1;align=center;verticalAlign=middle;whiteSpace=wrap;rounded=0;fontSize=10;strokeWidth=2;fontStyle=1" parent="1" vertex="1">
          <mxGeometry x="660" y="730" width="20" height="30" as="geometry" />
        </mxCell>
        <mxCell id="u02WTMG_zB_Rgp9r-icY-52" value="adder_n" style="text;html=1;align=center;verticalAlign=middle;whiteSpace=wrap;rounded=0;fontSize=10;fontColor=#007FFF;strokeWidth=2;fontStyle=1" parent="1" vertex="1">
          <mxGeometry x="690" y="808" width="50" height="30" as="geometry" />
        </mxCell>
        <mxCell id="u02WTMG_zB_Rgp9r-icY-53" value="b" style="text;html=1;align=center;verticalAlign=middle;whiteSpace=wrap;rounded=0;fontSize=10;strokeWidth=2;fontStyle=1" parent="1" vertex="1">
          <mxGeometry x="660" y="760" width="20" height="30" as="geometry" />
        </mxCell>
        <mxCell id="u02WTMG_zB_Rgp9r-icY-54" value="c_in" style="text;html=1;align=center;verticalAlign=middle;whiteSpace=wrap;rounded=0;fontSize=10;strokeWidth=2;fontStyle=1" parent="1" vertex="1">
          <mxGeometry x="660" y="790" width="30" height="30" as="geometry" />
        </mxCell>
        <mxCell id="u02WTMG_zB_Rgp9r-icY-55" value="s" style="text;html=1;align=center;verticalAlign=middle;whiteSpace=wrap;rounded=0;fontSize=10;strokeWidth=2;fontStyle=1" parent="1" vertex="1">
          <mxGeometry x="720" y="770" width="20" height="30" as="geometry" />
        </mxCell>
        <mxCell id="Z-Fa0jqv32ZpYlEeo3vv-56" value="" style="rounded=0;whiteSpace=wrap;html=1;fontSize=10;strokeWidth=2;fontStyle=1" parent="1" vertex="1">
          <mxGeometry x="430" y="600" width="85" height="90" as="geometry" />
        </mxCell>
        <mxCell id="QQOqPF4fdH8CEfbVyUoP-26" style="edgeStyle=orthogonalEdgeStyle;rounded=0;orthogonalLoop=1;jettySize=auto;html=1;entryX=0;entryY=0.5;entryDx=0;entryDy=0;endArrow=none;endFill=0;strokeWidth=2;fontStyle=1" parent="1" source="Z-Fa0jqv32ZpYlEeo3vv-57" target="u02WTMG_zB_Rgp9r-icY-53" edge="1">
          <mxGeometry relative="1" as="geometry">
            <Array as="points">
              <mxPoint x="540" y="625" />
              <mxPoint x="540" y="775" />
            </Array>
          </mxGeometry>
        </mxCell>
        <mxCell id="Z-Fa0jqv32ZpYlEeo3vv-57" value="data_out" style="text;html=1;align=center;verticalAlign=middle;whiteSpace=wrap;rounded=0;fontSize=10;strokeWidth=2;fontStyle=1" parent="1" vertex="1">
          <mxGeometry x="470" y="610" width="45" height="30" as="geometry" />
        </mxCell>
        <mxCell id="Z-Fa0jqv32ZpYlEeo3vv-59" value="sel" style="text;html=1;align=center;verticalAlign=middle;whiteSpace=wrap;rounded=0;fontSize=10;strokeWidth=2;fontStyle=1" parent="1" vertex="1">
          <mxGeometry x="430" y="610" width="20" height="30" as="geometry" />
        </mxCell>
        <mxCell id="Z-Fa0jqv32ZpYlEeo3vv-61" value="shifter" style="text;html=1;align=center;verticalAlign=middle;whiteSpace=wrap;rounded=0;fontSize=10;fontColor=#007FFF;strokeWidth=2;fontStyle=1" parent="1" vertex="1">
          <mxGeometry x="470" y="668" width="45" height="30" as="geometry" />
        </mxCell>
        <mxCell id="Z-Fa0jqv32ZpYlEeo3vv-62" value="data_in " style="text;html=1;align=center;verticalAlign=middle;whiteSpace=wrap;rounded=0;fontSize=10;labelBackgroundColor=default;strokeWidth=2;fontStyle=1" parent="1" vertex="1">
          <mxGeometry x="430" y="650" width="40" height="30" as="geometry" />
        </mxCell>
        <mxCell id="Z-Fa0jqv32ZpYlEeo3vv-68" value="&lt;font color=&quot;#e014ff&quot;&gt;s_write_shift_stable&lt;/font&gt;" style="text;html=1;align=center;verticalAlign=middle;whiteSpace=wrap;rounded=0;fontSize=10;strokeWidth=2;fontStyle=1" parent="1" vertex="1">
          <mxGeometry x="342" y="600" width="70" height="30" as="geometry" />
        </mxCell>
      </root>
    </mxGraphModel>
  </diagram>
</mxfile>
